<?xml version="1.0" encoding="UTF-8"?>
<svg id="Layer_2" data-name="Layer 2" xmlns="http://www.w3.org/2000/svg" viewBox="0 0 465.02 301.38">
  <defs>
    <style>
      .cls-1 {
        fill: #fff;
        stroke-width: 0px;
      }
    </style>
  </defs>
  <g id="Layer_12_copy_2" data-name="Layer 12 copy 2">
    <rect class="cls-1" x="220.31" y="74.7" width="25.96" height="175.81"/>
    <polygon class="cls-1" points="0 117.61 0 301.38 23.67 285.48 23.67 127 0 117.61"/>
    <polygon class="cls-1" points="176.46 221 200.13 209.64 200.13 151.1 110.27 107.96 110.27 134.22 167.43 161.66 110.27 227.03 110.27 252.95 132.25 241.21 176.46 187.99 176.46 221"/>
    <polygon class="cls-1" points="0 60.4 0 86.65 63.98 117.36 63.98 269.64 87.65 258.28 87.65 102.47 0 60.4"/>
    <polygon class="cls-1" points="266.45 151.55 266.45 209.2 290.11 220.56 290.11 166.44 328.41 148.05 328.41 238.95 352.08 250.31 352.08 110.44 266.45 151.55"/>
    <path class="cls-1" d="m448.66,292.2l16.36,7.86V60.68l-23.67,11.37v149.28l-12.6-30.64c-12.72-30.93-25.49-72.06-33.01-96.76h0l-23.7,11.38.04,1.78v148.33l23.67,11.36v-94.14l52.91,119.54Z"/>
    <g>
      <path class="cls-1" d="m172.61,23.37l3.92-3.3,26.79,31.82-3.92,3.3-26.79-31.82Z"/>
      <path class="cls-1" d="m201.88,5.95l4.86-1.6,7.06,21.51-3.96,4.33-7.96-24.24Z"/>
      <path class="cls-1" d="m243.44,5.69l-13.69-1.39.44-4.3,22.2,2.25-.44,4.3-3.42-.35-3.76,37.09-5.09-.52,3.76-37.09Z"/>
      <path class="cls-1" d="m278.14,34.51c4-5.5,6.59-11.53,2.06-14.82l-6.34-4.61,2.54-3.5,7.25,5.26c6.6,4.79,4.52,12.57-1.36,20.66l-14.15,19.49-4.14-3.01,14.15-19.49Z"/>
    </g>
  </g>
</svg>